<?xml version="1.0" encoding="UTF-8"?>
<svg id="logosandtypes_com" data-name="logosandtypes com" xmlns="http://www.w3.org/2000/svg" viewBox="0 0 150 150">
  <defs>
    <style>
      .cls-1 {
        fill: none;
      }
    </style>
  </defs>
  <path class="cls-1" d="M0,0H150V150H0V0Z"/>
  <path id="path7622" d="M142.36,70.16c-.93-10.03-5.82-18.4-9.34-27.38-4.13-6.5-9.99-12.81-16.3-17.14-4.93-2.51-8.97-7.24-14.83-7.6-12.58-5.42-27.95-6.6-42.5-4.65-1.46-2.99-4.86-2.43-7.61-2.91-3.87,1.62-8.48,1.46-12.21,3.52-6.02,1.38-11.6,5.87-15.44,10.76-6.68,5.59-7.9,12.61-12.36,19.43-.49,2.22-1.14,6.09-2.49,7.94-5.95,25.08-1.82,52.25,19.53,68.42,12.04,8.93,25.03,15.69,39.58,18.64,21.84,2.07,42.95-1.05,57.35-18.64,13.58-13.46,18.64-31.54,16.62-50.38m-15.73,31.17c-8.36,12.42-20.87,25.93-36.12,27.34-8.76,2.19-20.44,2.55-28.55-1.45-15.89-6.59-35.09-15.7-41.89-33.76-8.65-20.38-2.91-44.89,10.76-61.14,5.7-7.52,14.15-11,23.01-12.21,.65,1.21,1.38,2.87,2.91,3.19,5.21,.73,9.54-2.47,15.13-1.74,20.99,1.17,42.33,8.62,53.58,28.51,8.61,14.43,10.64,36.59,1.17,51.27"/>
  <path id="path7634" d="M46.28,33.48c1.82,3.48,.49,7.89-1.17,11.08-2.11,2.43-5.38,3.12-8.46,2.31-1.65-1.86-1.21-4.94-.89-7.28,.5-3.37,2.14-6.47,5.83-7.84,1.77,.12,3.27,.77,4.69,1.74"/>
  <path id="path7654" d="M114.1,47.15c1.9,1.98,2.47,4.89,1.74,7.6-.9,3.03-3.75,4.77-6.39,6.1-1.66-.04-3.16-.32-4.37-1.45-1.33-3.68-.13-7.77,1.17-11.08,1.7-2.63,5.74-3.72,7.85-1.17"/>
  <path id="path7658" d="M84.62,113.43c4.25,1.38,9.71,.57,12.82,4.08,.24,2.07-.21,3.89-1.78,5.26-4.45,1.13-7.84-2.15-11.64-.89-6.91-1.9-16.42,1.89-21.23-4.37-.49-1.74-.57-4.29,1.18-5.26,7.24-1.34,13.58,1.22,20.66,1.17"/>
</svg>